<?xml version="1.0" encoding="UTF-8" standalone="no"?>
<!DOCTYPE svg PUBLIC "-//W3C//DTD SVG 1.1//EN"
 "http://www.w3.org/Graphics/SVG/1.1/DTD/svg11.dtd">
<!-- Generated by graphviz version 2.47.0 (20210316.0004)
 -->
<!-- Title: dependencies Pages: 1 -->
<svg width="1950pt" height="284pt"
 viewBox="0.00 0.00 1950.00 284.00" xmlns="http://www.w3.org/2000/svg" xmlns:xlink="http://www.w3.org/1999/xlink">
<g id="graph0" class="graph" transform="scale(1 1) rotate(0) translate(4 280)">
<title>dependencies</title>
<polygon fill="white" stroke="transparent" points="-4,4 -4,-280 1946,-280 1946,4 -4,4"/>
<text text-anchor="start" x="950.01" y="-42.4" font-family="Times-12" font-weight="bold" font-size="14.00">Legend</text>
<polygon fill="#ffffb3" stroke="transparent" points="737,-10 737,-30 757,-30 757,-10 737,-10"/>
<text text-anchor="start" x="760.63" y="-15.4" font-family="Times-12" font-size="14.00"> &#160;Declarations</text>
<polygon fill="#8dd3c7" stroke="transparent" points="850,-10 850,-30 870,-30 870,-10 850,-10"/>
<text text-anchor="start" x="873.73" y="-15.4" font-family="Times-12" font-size="14.00"> &#160;Module</text>
<polygon fill="#80b1d3" stroke="transparent" points="936,-10 936,-30 956,-30 956,-10 936,-10"/>
<text text-anchor="start" x="959.78" y="-15.4" font-family="Times-12" font-size="14.00"> &#160;Bootstrap</text>
<polygon fill="#fdb462" stroke="transparent" points="1033,-10 1033,-30 1053,-30 1053,-10 1033,-10"/>
<text text-anchor="start" x="1056.67" y="-15.4" font-family="Times-12" font-size="14.00"> &#160;Providers</text>
<polygon fill="#fb8072" stroke="transparent" points="1129,-10 1129,-30 1149,-30 1149,-10 1129,-10"/>
<text text-anchor="start" x="1152.73" y="-15.4" font-family="Times-12" font-size="14.00"> &#160;Exports</text>
<g id="clust1" class="cluster">
<title>cluster_AppModule</title>
<polygon fill="none" stroke="black" stroke-dasharray="1,5" points="8,-70 8,-268 1934,-268 1934,-70 8,-70"/>
</g>
<g id="clust2" class="cluster">
<title>cluster_AppModule_declarations</title>
<polygon fill="none" stroke="black" points="168,-78 168,-130 1926,-130 1926,-78 168,-78"/>
</g>
<g id="clust16" class="cluster">
<title>cluster_AppModule_imports</title>
<polygon fill="none" stroke="black" points="16,-78 16,-130 160,-130 160,-78 16,-78"/>
</g>
<g id="clust18" class="cluster">
<title>cluster_AppModule_bootstrap</title>
<polygon fill="none" stroke="black" points="943,-208 943,-260 1067,-260 1067,-208 943,-208"/>
</g>
<!-- AdminComponent -->
<g id="node1" class="node">
<title>AdminComponent</title>
<polygon fill="#ffffb3" stroke="black" points="1918.22,-122 1797.78,-122 1797.78,-86 1918.22,-86 1918.22,-122"/>
<text text-anchor="middle" x="1858" y="-99.8" font-family="Times,serif" font-size="14.00">AdminComponent</text>
</g>
<!-- AppModule -->
<g id="node14" class="node">
<title>AppModule</title>
<polygon fill="#8dd3c7" stroke="black" points="1046.66,-187 1043.66,-191 1022.66,-191 1019.66,-187 963.34,-187 963.34,-151 1046.66,-151 1046.66,-187"/>
<text text-anchor="middle" x="1005" y="-164.8" font-family="Times,serif" font-size="14.00">AppModule</text>
</g>
<!-- AdminComponent&#45;&gt;AppModule -->
<g id="edge1" class="edge">
<title>AdminComponent&#45;&gt;AppModule</title>
<path fill="none" stroke="black" d="M1858,-122.09C1858,-145.13 1858,-182 1858,-182 1858,-182 1056.72,-182 1056.72,-182"/>
<polygon fill="black" stroke="black" points="1056.72,-178.5 1046.72,-182 1056.72,-185.5 1056.72,-178.5"/>
</g>
<!-- AppComponent -->
<g id="node2" class="node">
<title>AppComponent</title>
<polygon fill="#ffffb3" stroke="black" points="1779.94,-122 1674.06,-122 1674.06,-86 1779.94,-86 1779.94,-122"/>
<text text-anchor="middle" x="1727" y="-99.8" font-family="Times,serif" font-size="14.00">AppComponent</text>
</g>
<!-- AppComponent&#45;&gt;AppModule -->
<g id="edge2" class="edge">
<title>AppComponent&#45;&gt;AppModule</title>
<path fill="none" stroke="black" d="M1727,-122.04C1727,-143.66 1727,-177 1727,-177 1727,-177 1056.67,-177 1056.67,-177"/>
<polygon fill="black" stroke="black" points="1056.67,-173.5 1046.67,-177 1056.67,-180.5 1056.67,-173.5"/>
</g>
<!-- CapitalizePipe -->
<g id="node3" class="node">
<title>CapitalizePipe</title>
<polygon fill="#ffffb3" stroke="black" points="1655.65,-122 1558.35,-122 1558.35,-86 1655.65,-86 1655.65,-122"/>
<text text-anchor="middle" x="1607" y="-99.8" font-family="Times,serif" font-size="14.00">CapitalizePipe</text>
</g>
<!-- CapitalizePipe&#45;&gt;AppModule -->
<g id="edge3" class="edge">
<title>CapitalizePipe&#45;&gt;AppModule</title>
<path fill="none" stroke="black" d="M1607,-122.22C1607,-142.37 1607,-172 1607,-172 1607,-172 1056.85,-172 1056.85,-172"/>
<polygon fill="black" stroke="black" points="1056.85,-168.5 1046.85,-172 1056.85,-175.5 1056.85,-168.5"/>
</g>
<!-- CartComponent -->
<g id="node4" class="node">
<title>CartComponent</title>
<polygon fill="#ffffb3" stroke="black" points="1539.94,-122 1434.06,-122 1434.06,-86 1539.94,-86 1539.94,-122"/>
<text text-anchor="middle" x="1487" y="-99.8" font-family="Times,serif" font-size="14.00">CartComponent</text>
</g>
<!-- CartComponent&#45;&gt;AppModule -->
<g id="edge4" class="edge">
<title>CartComponent&#45;&gt;AppModule</title>
<path fill="none" stroke="black" d="M1487,-122.22C1487,-140.83 1487,-167 1487,-167 1487,-167 1056.93,-167 1056.93,-167"/>
<polygon fill="black" stroke="black" points="1056.93,-163.5 1046.93,-167 1056.93,-170.5 1056.93,-163.5"/>
</g>
<!-- CategoryComponent -->
<g id="node5" class="node">
<title>CategoryComponent</title>
<polygon fill="#ffffb3" stroke="black" points="1416.15,-122 1283.85,-122 1283.85,-86 1416.15,-86 1416.15,-122"/>
<text text-anchor="middle" x="1350" y="-99.8" font-family="Times,serif" font-size="14.00">CategoryComponent</text>
</g>
<!-- CategoryComponent&#45;&gt;AppModule -->
<g id="edge5" class="edge">
<title>CategoryComponent&#45;&gt;AppModule</title>
<path fill="none" stroke="black" d="M1350,-122.03C1350,-139.06 1350,-162 1350,-162 1350,-162 1056.96,-162 1056.96,-162"/>
<polygon fill="black" stroke="black" points="1056.96,-158.5 1046.96,-162 1056.96,-165.5 1056.96,-158.5"/>
</g>
<!-- FooterComponent -->
<g id="node6" class="node">
<title>FooterComponent</title>
<polygon fill="#ffffb3" stroke="black" points="1265.88,-122 1148.12,-122 1148.12,-86 1265.88,-86 1265.88,-122"/>
<text text-anchor="middle" x="1207" y="-99.8" font-family="Times,serif" font-size="14.00">FooterComponent</text>
</g>
<!-- FooterComponent&#45;&gt;AppModule -->
<g id="edge6" class="edge">
<title>FooterComponent&#45;&gt;AppModule</title>
<path fill="none" stroke="black" d="M1207,-122.24C1207,-137.57 1207,-157 1207,-157 1207,-157 1056.85,-157 1056.85,-157"/>
<polygon fill="black" stroke="black" points="1056.85,-153.5 1046.85,-157 1056.85,-160.5 1056.85,-153.5"/>
</g>
<!-- HomeComponent -->
<g id="node7" class="node">
<title>HomeComponent</title>
<polygon fill="#ffffb3" stroke="black" points="1129.55,-122 1014.45,-122 1014.45,-86 1129.55,-86 1129.55,-122"/>
<text text-anchor="middle" x="1072" y="-99.8" font-family="Times,serif" font-size="14.00">HomeComponent</text>
</g>
<!-- HomeComponent&#45;&gt;AppModule -->
<g id="edge7" class="edge">
<title>HomeComponent&#45;&gt;AppModule</title>
<path fill="none" stroke="black" d="M1030.53,-122.11C1030.53,-122.11 1030.53,-140.99 1030.53,-140.99"/>
<polygon fill="black" stroke="black" points="1027.03,-140.99 1030.53,-150.99 1034.03,-140.99 1027.03,-140.99"/>
</g>
<!-- LoginComponent -->
<g id="node8" class="node">
<title>LoginComponent</title>
<polygon fill="#ffffb3" stroke="black" points="996.28,-122 881.72,-122 881.72,-86 996.28,-86 996.28,-122"/>
<text text-anchor="middle" x="939" y="-99.8" font-family="Times,serif" font-size="14.00">LoginComponent</text>
</g>
<!-- LoginComponent&#45;&gt;AppModule -->
<g id="edge8" class="edge">
<title>LoginComponent&#45;&gt;AppModule</title>
<path fill="none" stroke="black" d="M979.78,-122.11C979.78,-122.11 979.78,-140.99 979.78,-140.99"/>
<polygon fill="black" stroke="black" points="976.28,-140.99 979.78,-150.99 983.28,-140.99 976.28,-140.99"/>
</g>
<!-- ModalComponent -->
<g id="node9" class="node">
<title>ModalComponent</title>
<polygon fill="#ffffb3" stroke="black" points="863.88,-122 746.12,-122 746.12,-86 863.88,-86 863.88,-122"/>
<text text-anchor="middle" x="805" y="-99.8" font-family="Times,serif" font-size="14.00">ModalComponent</text>
</g>
<!-- ModalComponent&#45;&gt;AppModule -->
<g id="edge9" class="edge">
<title>ModalComponent&#45;&gt;AppModule</title>
<path fill="none" stroke="black" d="M805,-122.24C805,-137.57 805,-157 805,-157 805,-157 953.07,-157 953.07,-157"/>
<polygon fill="black" stroke="black" points="953.07,-160.5 963.07,-157 953.07,-153.5 953.07,-160.5"/>
</g>
<!-- NavbarComponent -->
<g id="node10" class="node">
<title>NavbarComponent</title>
<polygon fill="#ffffb3" stroke="black" points="728.03,-122 605.97,-122 605.97,-86 728.03,-86 728.03,-122"/>
<text text-anchor="middle" x="667" y="-99.8" font-family="Times,serif" font-size="14.00">NavbarComponent</text>
</g>
<!-- NavbarComponent&#45;&gt;AppModule -->
<g id="edge10" class="edge">
<title>NavbarComponent&#45;&gt;AppModule</title>
<path fill="none" stroke="black" d="M667,-122.03C667,-139.06 667,-162 667,-162 667,-162 953.22,-162 953.22,-162"/>
<polygon fill="black" stroke="black" points="953.22,-165.5 963.22,-162 953.22,-158.5 953.22,-165.5"/>
</g>
<!-- ProfileComponent -->
<g id="node11" class="node">
<title>ProfileComponent</title>
<polygon fill="#ffffb3" stroke="black" points="587.93,-122 468.07,-122 468.07,-86 587.93,-86 587.93,-122"/>
<text text-anchor="middle" x="528" y="-99.8" font-family="Times,serif" font-size="14.00">ProfileComponent</text>
</g>
<!-- ProfileComponent&#45;&gt;AppModule -->
<g id="edge11" class="edge">
<title>ProfileComponent&#45;&gt;AppModule</title>
<path fill="none" stroke="black" d="M528,-122.22C528,-140.83 528,-167 528,-167 528,-167 953.09,-167 953.09,-167"/>
<polygon fill="black" stroke="black" points="953.09,-170.5 963.09,-167 953.09,-163.5 953.09,-170.5"/>
</g>
<!-- RecoverComponent -->
<g id="node12" class="node">
<title>RecoverComponent</title>
<polygon fill="#ffffb3" stroke="black" points="449.97,-122 322.03,-122 322.03,-86 449.97,-86 449.97,-122"/>
<text text-anchor="middle" x="386" y="-99.8" font-family="Times,serif" font-size="14.00">RecoverComponent</text>
</g>
<!-- RecoverComponent&#45;&gt;AppModule -->
<g id="edge12" class="edge">
<title>RecoverComponent&#45;&gt;AppModule</title>
<path fill="none" stroke="black" d="M386,-122.22C386,-142.37 386,-172 386,-172 386,-172 952.94,-172 952.94,-172"/>
<polygon fill="black" stroke="black" points="952.94,-175.5 962.94,-172 952.94,-168.5 952.94,-175.5"/>
</g>
<!-- RegisterComponent -->
<g id="node13" class="node">
<title>RegisterComponent</title>
<polygon fill="#ffffb3" stroke="black" points="303.98,-122 176.02,-122 176.02,-86 303.98,-86 303.98,-122"/>
<text text-anchor="middle" x="240" y="-99.8" font-family="Times,serif" font-size="14.00">RegisterComponent</text>
</g>
<!-- RegisterComponent&#45;&gt;AppModule -->
<g id="edge13" class="edge">
<title>RegisterComponent&#45;&gt;AppModule</title>
<path fill="none" stroke="black" d="M240,-122.04C240,-143.66 240,-177 240,-177 240,-177 953.33,-177 953.33,-177"/>
<polygon fill="black" stroke="black" points="953.33,-180.5 963.33,-177 953.33,-173.5 953.33,-180.5"/>
</g>
<!-- AppComponent  -->
<g id="node16" class="node">
<title>AppComponent </title>
<polygon fill="#80b1d3" stroke="black" points="1059.44,-252 950.56,-252 950.56,-216 1059.44,-216 1059.44,-252"/>
<text text-anchor="middle" x="1005" y="-229.8" font-family="Times,serif" font-size="14.00">AppComponent </text>
</g>
<!-- AppModule&#45;&gt;AppComponent  -->
<g id="edge15" class="edge">
<title>AppModule&#45;&gt;AppComponent </title>
<path fill="none" stroke="black" stroke-dasharray="1,5" d="M1005,-187.11C1005,-187.11 1005,-205.99 1005,-205.99"/>
<polygon fill="black" stroke="black" points="1001.5,-205.99 1005,-215.99 1008.5,-205.99 1001.5,-205.99"/>
</g>
<!-- AppRoutingModule -->
<g id="node15" class="node">
<title>AppRoutingModule</title>
<polygon fill="#8dd3c7" stroke="black" points="152.27,-122 149.27,-126 128.27,-126 125.27,-122 23.73,-122 23.73,-86 152.27,-86 152.27,-122"/>
<text text-anchor="middle" x="88" y="-99.8" font-family="Times,serif" font-size="14.00">AppRoutingModule</text>
</g>
<!-- AppRoutingModule&#45;&gt;AppModule -->
<g id="edge14" class="edge">
<title>AppRoutingModule&#45;&gt;AppModule</title>
<path fill="none" stroke="black" d="M88,-122.09C88,-145.13 88,-182 88,-182 88,-182 953.22,-182 953.22,-182"/>
<polygon fill="black" stroke="black" points="953.22,-185.5 963.22,-182 953.22,-178.5 953.22,-185.5"/>
</g>
</g>
</svg>
