<?xml version="1.0" encoding="UTF-8" standalone="no"?>
<!DOCTYPE svg PUBLIC "-//W3C//DTD SVG 1.1//EN"
 "http://www.w3.org/Graphics/SVG/1.1/DTD/svg11.dtd">
<!-- Generated by graphviz version 2.47.0 (20210316.0004)
 -->
<!-- Title: dependencies Pages: 1 -->
<svg width="1950pt" height="284pt"
 viewBox="0.00 0.00 1950.00 284.00" xmlns="http://www.w3.org/2000/svg" xmlns:xlink="http://www.w3.org/1999/xlink">
<g id="graph0" class="graph" transform="scale(1 1) rotate(0) translate(4 280)">
<title>dependencies</title>
<polygon fill="white" stroke="transparent" points="-4,4 -4,-280 1946,-280 1946,4 -4,4"/>
<text text-anchor="start" x="950.01" y="-42.4" font-family="Times-12" font-weight="bold" font-size="14.00">Legend</text>
<polygon fill="#ffffb3" stroke="transparent" points="737,-10 737,-30 757,-30 757,-10 737,-10"/>
<text text-anchor="start" x="760.63" y="-15.4" font-family="Times-12" font-size="14.00"> &#160;Declarations</text>
<polygon fill="#8dd3c7" stroke="transparent" points="850,-10 850,-30 870,-30 870,-10 850,-10"/>
<text text-anchor="start" x="873.73" y="-15.4" font-family="Times-12" font-size="14.00"> &#160;Module</text>
<polygon fill="#80b1d3" stroke="transparent" points="936,-10 936,-30 956,-30 956,-10 936,-10"/>
<text text-anchor="start" x="959.78" y="-15.4" font-family="Times-12" font-size="14.00"> &#160;Bootstrap</text>
<polygon fill="#fdb462" stroke="transparent" points="1033,-10 1033,-30 1053,-30 1053,-10 1033,-10"/>
<text text-anchor="start" x="1056.67" y="-15.4" font-family="Times-12" font-size="14.00"> &#160;Providers</text>
<polygon fill="#fb8072" stroke="transparent" points="1129,-10 1129,-30 1149,-30 1149,-10 1129,-10"/>
<text text-anchor="start" x="1152.73" y="-15.4" font-family="Times-12" font-size="14.00"> &#160;Exports</text>
<g id="clust1" class="cluster">
<title>cluster_AppModule</title>
<polygon fill="none" stroke="black" stroke-dasharray="1,5" points="8,-70 8,-268 1934,-268 1934,-70 8,-70"/>
</g>
<g id="clust16" class="cluster">
<title>cluster_AppModule_imports</title>
<polygon fill="none" stroke="black" points="1782,-78 1782,-130 1926,-130 1926,-78 1782,-78"/>
</g>
<g id="clust18" class="cluster">
<title>cluster_AppModule_bootstrap</title>
<polygon fill="none" stroke="black" points="925,-208 925,-260 1049,-260 1049,-208 925,-208"/>
</g>
<g id="clust2" class="cluster">
<title>cluster_AppModule_declarations</title>
<polygon fill="none" stroke="black" points="16,-78 16,-130 1774,-130 1774,-78 16,-78"/>
</g>
<!-- AdminComponent -->
<g id="node1" class="node">
<title>AdminComponent</title>
<polygon fill="#ffffb3" stroke="black" points="1766.22,-122 1645.78,-122 1645.78,-86 1766.22,-86 1766.22,-122"/>
<text text-anchor="middle" x="1706" y="-99.8" font-family="Times,serif" font-size="14.00">AdminComponent</text>
</g>
<!-- AppModule -->
<g id="node14" class="node">
<title>AppModule</title>
<polygon fill="#8dd3c7" stroke="black" points="1028.66,-187 1025.66,-191 1004.66,-191 1001.66,-187 945.34,-187 945.34,-151 1028.66,-151 1028.66,-187"/>
<text text-anchor="middle" x="987" y="-164.8" font-family="Times,serif" font-size="14.00">AppModule</text>
</g>
<!-- AdminComponent&#45;&gt;AppModule -->
<g id="edge1" class="edge">
<title>AdminComponent&#45;&gt;AppModule</title>
<path fill="none" stroke="black" d="M1706,-122.04C1706,-143.66 1706,-177 1706,-177 1706,-177 1038.76,-177 1038.76,-177"/>
<polygon fill="black" stroke="black" points="1038.76,-173.5 1028.76,-177 1038.76,-180.5 1038.76,-173.5"/>
</g>
<!-- AppComponent -->
<g id="node2" class="node">
<title>AppComponent</title>
<polygon fill="#ffffb3" stroke="black" points="1627.94,-122 1522.06,-122 1522.06,-86 1627.94,-86 1627.94,-122"/>
<text text-anchor="middle" x="1575" y="-99.8" font-family="Times,serif" font-size="14.00">AppComponent</text>
</g>
<!-- AppComponent&#45;&gt;AppModule -->
<g id="edge2" class="edge">
<title>AppComponent&#45;&gt;AppModule</title>
<path fill="none" stroke="black" d="M1575,-122.22C1575,-142.37 1575,-172 1575,-172 1575,-172 1038.82,-172 1038.82,-172"/>
<polygon fill="black" stroke="black" points="1038.82,-168.5 1028.82,-172 1038.82,-175.5 1038.82,-168.5"/>
</g>
<!-- CapitalizePipe -->
<g id="node3" class="node">
<title>CapitalizePipe</title>
<polygon fill="#ffffb3" stroke="black" points="1503.65,-122 1406.35,-122 1406.35,-86 1503.65,-86 1503.65,-122"/>
<text text-anchor="middle" x="1455" y="-99.8" font-family="Times,serif" font-size="14.00">CapitalizePipe</text>
</g>
<!-- CapitalizePipe&#45;&gt;AppModule -->
<g id="edge3" class="edge">
<title>CapitalizePipe&#45;&gt;AppModule</title>
<path fill="none" stroke="black" d="M1455,-122.22C1455,-140.83 1455,-167 1455,-167 1455,-167 1038.94,-167 1038.94,-167"/>
<polygon fill="black" stroke="black" points="1038.94,-163.5 1028.94,-167 1038.94,-170.5 1038.94,-163.5"/>
</g>
<!-- CartComponent -->
<g id="node4" class="node">
<title>CartComponent</title>
<polygon fill="#ffffb3" stroke="black" points="1387.94,-122 1282.06,-122 1282.06,-86 1387.94,-86 1387.94,-122"/>
<text text-anchor="middle" x="1335" y="-99.8" font-family="Times,serif" font-size="14.00">CartComponent</text>
</g>
<!-- CartComponent&#45;&gt;AppModule -->
<g id="edge4" class="edge">
<title>CartComponent&#45;&gt;AppModule</title>
<path fill="none" stroke="black" d="M1335,-122.03C1335,-139.06 1335,-162 1335,-162 1335,-162 1038.98,-162 1038.98,-162"/>
<polygon fill="black" stroke="black" points="1038.98,-158.5 1028.98,-162 1038.98,-165.5 1038.98,-158.5"/>
</g>
<!-- CategoryComponent -->
<g id="node5" class="node">
<title>CategoryComponent</title>
<polygon fill="#ffffb3" stroke="black" points="1264.15,-122 1131.85,-122 1131.85,-86 1264.15,-86 1264.15,-122"/>
<text text-anchor="middle" x="1198" y="-99.8" font-family="Times,serif" font-size="14.00">CategoryComponent</text>
</g>
<!-- CategoryComponent&#45;&gt;AppModule -->
<g id="edge5" class="edge">
<title>CategoryComponent&#45;&gt;AppModule</title>
<path fill="none" stroke="black" d="M1198,-122.24C1198,-137.57 1198,-157 1198,-157 1198,-157 1038.69,-157 1038.69,-157"/>
<polygon fill="black" stroke="black" points="1038.69,-153.5 1028.69,-157 1038.69,-160.5 1038.69,-153.5"/>
</g>
<!-- FooterComponent -->
<g id="node6" class="node">
<title>FooterComponent</title>
<polygon fill="#ffffb3" stroke="black" points="1113.88,-122 996.12,-122 996.12,-86 1113.88,-86 1113.88,-122"/>
<text text-anchor="middle" x="1055" y="-99.8" font-family="Times,serif" font-size="14.00">FooterComponent</text>
</g>
<!-- FooterComponent&#45;&gt;AppModule -->
<g id="edge6" class="edge">
<title>FooterComponent&#45;&gt;AppModule</title>
<path fill="none" stroke="black" d="M1012.44,-122.11C1012.44,-122.11 1012.44,-140.99 1012.44,-140.99"/>
<polygon fill="black" stroke="black" points="1008.94,-140.99 1012.44,-150.99 1015.94,-140.99 1008.94,-140.99"/>
</g>
<!-- HomeComponent -->
<g id="node7" class="node">
<title>HomeComponent</title>
<polygon fill="#ffffb3" stroke="black" points="977.55,-122 862.45,-122 862.45,-86 977.55,-86 977.55,-122"/>
<text text-anchor="middle" x="920" y="-99.8" font-family="Times,serif" font-size="14.00">HomeComponent</text>
</g>
<!-- HomeComponent&#45;&gt;AppModule -->
<g id="edge7" class="edge">
<title>HomeComponent&#45;&gt;AppModule</title>
<path fill="none" stroke="black" d="M961.47,-122.11C961.47,-122.11 961.47,-140.99 961.47,-140.99"/>
<polygon fill="black" stroke="black" points="957.97,-140.99 961.47,-150.99 964.97,-140.99 957.97,-140.99"/>
</g>
<!-- LoginComponent -->
<g id="node8" class="node">
<title>LoginComponent</title>
<polygon fill="#ffffb3" stroke="black" points="844.28,-122 729.72,-122 729.72,-86 844.28,-86 844.28,-122"/>
<text text-anchor="middle" x="787" y="-99.8" font-family="Times,serif" font-size="14.00">LoginComponent</text>
</g>
<!-- LoginComponent&#45;&gt;AppModule -->
<g id="edge8" class="edge">
<title>LoginComponent&#45;&gt;AppModule</title>
<path fill="none" stroke="black" d="M787,-122.24C787,-137.57 787,-157 787,-157 787,-157 935.07,-157 935.07,-157"/>
<polygon fill="black" stroke="black" points="935.07,-160.5 945.07,-157 935.07,-153.5 935.07,-160.5"/>
</g>
<!-- ModalComponent -->
<g id="node9" class="node">
<title>ModalComponent</title>
<polygon fill="#ffffb3" stroke="black" points="711.88,-122 594.12,-122 594.12,-86 711.88,-86 711.88,-122"/>
<text text-anchor="middle" x="653" y="-99.8" font-family="Times,serif" font-size="14.00">ModalComponent</text>
</g>
<!-- ModalComponent&#45;&gt;AppModule -->
<g id="edge9" class="edge">
<title>ModalComponent&#45;&gt;AppModule</title>
<path fill="none" stroke="black" d="M653,-122.03C653,-139.06 653,-162 653,-162 653,-162 935.04,-162 935.04,-162"/>
<polygon fill="black" stroke="black" points="935.04,-165.5 945.04,-162 935.04,-158.5 935.04,-165.5"/>
</g>
<!-- NavbarComponent -->
<g id="node10" class="node">
<title>NavbarComponent</title>
<polygon fill="#ffffb3" stroke="black" points="576.03,-122 453.97,-122 453.97,-86 576.03,-86 576.03,-122"/>
<text text-anchor="middle" x="515" y="-99.8" font-family="Times,serif" font-size="14.00">NavbarComponent</text>
</g>
<!-- NavbarComponent&#45;&gt;AppModule -->
<g id="edge10" class="edge">
<title>NavbarComponent&#45;&gt;AppModule</title>
<path fill="none" stroke="black" d="M515,-122.22C515,-140.83 515,-167 515,-167 515,-167 935.11,-167 935.11,-167"/>
<polygon fill="black" stroke="black" points="935.11,-170.5 945.11,-167 935.11,-163.5 935.11,-170.5"/>
</g>
<!-- ProfileComponent -->
<g id="node11" class="node">
<title>ProfileComponent</title>
<polygon fill="#ffffb3" stroke="black" points="435.93,-122 316.07,-122 316.07,-86 435.93,-86 435.93,-122"/>
<text text-anchor="middle" x="376" y="-99.8" font-family="Times,serif" font-size="14.00">ProfileComponent</text>
</g>
<!-- ProfileComponent&#45;&gt;AppModule -->
<g id="edge11" class="edge">
<title>ProfileComponent&#45;&gt;AppModule</title>
<path fill="none" stroke="black" d="M376,-122.22C376,-142.37 376,-172 376,-172 376,-172 935,-172 935,-172"/>
<polygon fill="black" stroke="black" points="935,-175.5 945,-172 935,-168.5 935,-175.5"/>
</g>
<!-- RecoverComponent -->
<g id="node12" class="node">
<title>RecoverComponent</title>
<polygon fill="#ffffb3" stroke="black" points="297.97,-122 170.03,-122 170.03,-86 297.97,-86 297.97,-122"/>
<text text-anchor="middle" x="234" y="-99.8" font-family="Times,serif" font-size="14.00">RecoverComponent</text>
</g>
<!-- RecoverComponent&#45;&gt;AppModule -->
<g id="edge12" class="edge">
<title>RecoverComponent&#45;&gt;AppModule</title>
<path fill="none" stroke="black" d="M234,-122.04C234,-143.66 234,-177 234,-177 234,-177 935.17,-177 935.17,-177"/>
<polygon fill="black" stroke="black" points="935.17,-180.5 945.17,-177 935.17,-173.5 935.17,-180.5"/>
</g>
<!-- RegisterComponent -->
<g id="node13" class="node">
<title>RegisterComponent</title>
<polygon fill="#ffffb3" stroke="black" points="151.98,-122 24.02,-122 24.02,-86 151.98,-86 151.98,-122"/>
<text text-anchor="middle" x="88" y="-99.8" font-family="Times,serif" font-size="14.00">RegisterComponent</text>
</g>
<!-- RegisterComponent&#45;&gt;AppModule -->
<g id="edge13" class="edge">
<title>RegisterComponent&#45;&gt;AppModule</title>
<path fill="none" stroke="black" d="M88,-122.09C88,-145.13 88,-182 88,-182 88,-182 935.14,-182 935.14,-182"/>
<polygon fill="black" stroke="black" points="935.14,-185.5 945.14,-182 935.14,-178.5 935.14,-185.5"/>
</g>
<!-- AppComponent  -->
<g id="node16" class="node">
<title>AppComponent </title>
<polygon fill="#80b1d3" stroke="black" points="1041.44,-252 932.56,-252 932.56,-216 1041.44,-216 1041.44,-252"/>
<text text-anchor="middle" x="987" y="-229.8" font-family="Times,serif" font-size="14.00">AppComponent </text>
</g>
<!-- AppModule&#45;&gt;AppComponent  -->
<g id="edge15" class="edge">
<title>AppModule&#45;&gt;AppComponent </title>
<path fill="none" stroke="black" stroke-dasharray="1,5" d="M987,-187.11C987,-187.11 987,-205.99 987,-205.99"/>
<polygon fill="black" stroke="black" points="983.5,-205.99 987,-215.99 990.5,-205.99 983.5,-205.99"/>
</g>
<!-- AppRoutingModule -->
<g id="node15" class="node">
<title>AppRoutingModule</title>
<polygon fill="#8dd3c7" stroke="black" points="1918.27,-122 1915.27,-126 1894.27,-126 1891.27,-122 1789.73,-122 1789.73,-86 1918.27,-86 1918.27,-122"/>
<text text-anchor="middle" x="1854" y="-99.8" font-family="Times,serif" font-size="14.00">AppRoutingModule</text>
</g>
<!-- AppRoutingModule&#45;&gt;AppModule -->
<g id="edge14" class="edge">
<title>AppRoutingModule&#45;&gt;AppModule</title>
<path fill="none" stroke="black" d="M1854,-122.09C1854,-145.13 1854,-182 1854,-182 1854,-182 1038.82,-182 1038.82,-182"/>
<polygon fill="black" stroke="black" points="1038.82,-178.5 1028.82,-182 1038.82,-185.5 1038.82,-178.5"/>
</g>
</g>
</svg>
